# Blender v2.77 (sub 0) OBJ File: ''
# www.blender.org
mtllib Castle_TerrainField.mtl
o Scene.001
v 20.388466 -2.540151 -18.089819
v 26.255596 -2.813435 -7.167878
v 41.390324 -5.334933 -10.121193
v 30.745512 -5.000170 -29.192570
v -5.919936 -0.296502 -1.641169
v 20.227472 -3.113488 20.692556
v 8.613564 -2.832268 27.502037
v 10.804009 -5.579994 41.123463
v 29.877094 -5.669697 30.475777
v -29.292976 -3.625611 -8.965046
v -22.001581 -3.407237 -21.182186
v -26.941931 -6.417344 -28.012636
v -39.343056 -6.507041 -12.731087
v -6.374490 -2.709197 27.545202
v -11.036163 -5.334937 40.808937
v -18.382420 -2.396139 19.574459
v -29.791388 -5.000170 29.616474
v -31.723827 -3.210930 9.391520
v -43.517529 -6.334691 10.899231
v 28.234695 -3.122840 8.031652
v 41.072460 -5.579994 11.718936
v 3.013543 -2.019721 10.395907
v -2.451273 -2.019722 10.316790
v -7.144385 -2.019724 7.515861
v 11.433477 -2.045014 -30.994833
v 12.675143 -4.665408 -43.644886
v -9.578480 -3.216525 -28.116846
v -11.429461 -6.507041 -39.748096
v -9.808277 -2.696996 2.743632
v -9.729158 -2.897680 -2.721186
v -6.928230 -3.219537 -7.414298
v 7.785775 -2.019721 7.732016
v 10.586699 -2.019722 3.038905
v 10.665817 -2.019722 -2.425914
v 8.001927 -2.019724 -7.198143
v 3.308817 -2.019727 -9.999070
v -2.155999 -2.818419 -10.078190
v -0.857246 -2.415403 0.747426
v -0.480813 -2.415403 0.116692
v -0.867878 -2.415403 1.481874
v -0.509863 -2.415402 2.123241
v 0.120871 -2.415402 2.499674
v 0.855318 -2.415402 2.510307
v 1.496686 -2.415401 2.152292
v 1.873118 -2.415402 1.521557
v 1.883751 -2.415402 0.787109
v 1.525735 -2.415402 0.145743
v 0.895002 -2.415402 -0.230690
v 0.160554 -2.415403 -0.241323
v 25.566990 -3.187607 -23.641193
v 34.653580 -3.768864 9.875295
v -24.086903 -3.115601 24.595467
v -10.503970 -4.279230 -33.932472
v -34.318016 -4.483773 -10.848066
v 25.052284 -3.809039 25.584167
v -24.471756 -4.329738 -24.597410
v 9.708786 -3.623578 34.312752
v -37.620678 -4.190257 10.145375
v -8.705327 -3.439513 34.177071
v 33.822960 -3.491631 -8.644536
v 12.054310 -2.772658 -37.319859
v -14.464906 -3.313387 -14.298243
v -20.766052 -2.953963 6.067576
v 7.371147 -2.032370 -20.496952
v -19.511066 -3.261646 -5.843116
v -5.867239 -3.017472 -19.097519
v -4.412882 -2.364459 18.930996
v 18.460707 -2.416579 -4.796896
v 14.006623 -2.566605 14.212286
v -12.763402 -2.207931 13.545160
v 19.410698 -2.571281 5.535279
v 5.813553 -2.425995 18.948973
v 14.195196 -2.279937 -12.643980
vt 0.7845 0.0891
vt 0.6799 0.1156
vt 0.6598 0.0324
vt 0.7935 0.0000
vt 0.5417 0.4425
vt 0.5543 0.6522
vt 0.5166 0.6901
vt 0.5000 0.4308
vt 0.9396 0.7572
vt 0.9720 0.5649
vt 0.9982 0.5647
vt 0.9675 0.7925
vt 0.6221 0.8288
vt 0.5979 0.8984
vt 0.7259 0.9093
vt 0.7219 1.0000
vt 0.8472 0.9376
vt 0.8652 1.0000
vt 0.5848 0.2387
vt 0.5524 0.1901
vt 0.6822 0.6794
vt 0.6448 0.5809
vt 0.6975 0.5473
vt 0.7178 0.5995
vt 0.7489 0.6249
vt 0.7394 0.7218
vt 0.9018 0.1225
vt 0.9312 0.0719
vt 0.9675 0.3641
vt 1.0000 0.3321
vt 0.8059 0.7461
vt 0.7824 0.6169
vt 0.8605 0.6497
vt 0.8093 0.5775
vt 0.8842 0.5412
vt 0.8224 0.5173
vt 0.6384 0.4684
vt 0.6933 0.4825
vt 0.6619 0.3549
vt 0.5836 0.4543
vt 0.6173 0.2875
vt 0.7167 0.2909
vt 0.7001 0.1990
vt 0.7713 0.2765
vt 0.7758 0.1782
vt 0.8352 0.2867
vt 0.8726 0.1732
vt 0.8766 0.4243
vt 0.9350 0.3963
vt 0.9459 0.5652
vt 0.7596 0.5164
vt 0.7614 0.5083
vt 0.7560 0.5217
vt 0.7515 0.5228
vt 0.7473 0.5194
vt 0.7446 0.5124
vt 0.7440 0.5037
vt 0.7458 0.4956
vt 0.7064 0.4222
vt 0.7494 0.4903
vt 0.7333 0.3828
vt 0.7539 0.4892
vt 0.7668 0.3747
vt 0.7581 0.4926
vt 0.7978 0.4001
vt 0.7608 0.4996
vt 0.8182 0.4523
vt 0.7299 0.8187
vt 0.8293 0.8753
vt 0.9118 0.7220
vt 0.6465 0.7593
vt 0.5921 0.6145
vt 0.2065 0.0000
vt 0.3402 0.0324
vt 0.4476 0.1900
vt 0.5000 0.4307
vt 0.4834 0.6900
vt 0.4021 0.8984
vt 0.2780 1.0000
vt 0.1348 1.0000
vt 0.0325 0.7925
vt 0.0018 0.5648
vt 0.0000 0.3321
vt 0.0687 0.0719
vn 0.1773 0.9796 -0.0945
vn 0.1717 0.9839 -0.0489
vn 0.2377 0.9703 -0.0451
vn 0.2106 0.9650 -0.1565
vn 0.1587 0.9767 0.1445
vn 0.0643 0.9753 0.2113
vn 0.0705 0.9629 0.2603
vn 0.1869 0.9635 0.1915
vn -0.1295 0.9913 -0.0242
vn -0.2218 0.9496 -0.2213
vn -0.2808 0.9132 -0.2952
vn -0.2572 0.9647 -0.0570
vn -0.0227 0.9799 0.1983
vn -0.0599 0.9657 0.2525
vn -0.1299 0.9799 0.1517
vn -0.1961 0.9630 0.1849
vn -0.2438 0.9695 -0.0267
vn -0.0554 0.9865 -0.1540
vn -0.5177 0.8353 -0.1853
vn -0.3629 0.9317 -0.0134
vn 0.1900 0.9809 0.0425
vn 0.2416 0.9674 0.0757
vn 0.0010 0.9998 0.0223
vn 0.0065 0.9989 0.0469
vn 0.0187 0.9989 0.0429
vn -0.0024 0.9993 0.0377
vn -0.0357 0.9992 -0.0162
vn -0.0213 0.9996 -0.0205
vn -0.1536 0.9868 -0.0518
vn -0.0926 0.9357 -0.3405
vn -0.2770 0.9190 -0.2804
vn 0.3968 0.8963 -0.1979
vn 0.1707 0.9669 -0.1897
vn -0.1538 0.8654 -0.4768
vn -0.0416 0.9976 -0.0560
vn -0.0456 0.9979 -0.0464
vn -0.0455 0.9801 0.1932
vn 0.1686 0.9820 0.0853
vn -0.1053 0.9859 0.1300
vn 0.1879 0.9593 0.2109
vn 0.0483 0.9974 0.0532
vn 0.0443 0.9983 0.0374
vn 0.0696 0.9971 0.0303
vn 0.0982 0.9929 0.0674
vn 0.1094 0.9933 0.0377
vn 0.0667 0.9978 0.0001
vn 0.1059 0.9943 -0.0125
vn 0.0516 0.9987 0.0047
vn 0.0401 0.9992 -0.0092
vn -0.0606 0.9960 -0.0660
vn 0.0770 0.9917 -0.1029
vn -0.2690 0.9624 -0.0391
vn 0.0154 0.9992 -0.0378
vn 0.0196 0.9654 -0.2602
vn -0.1039 0.9733 -0.2044
vn 0.1503 0.9868 0.0607
vn -0.1194 0.9928 -0.0014
vn -0.0235 0.9997 -0.0037
vn 0.0793 0.9712 -0.2246
vn -0.0570 0.9970 -0.0520
vn -0.2975 0.9077 -0.2958
vn -0.2627 0.9032 -0.3393
vn -0.0392 0.9970 -0.0664
vn -0.1316 0.9833 0.1261
vn -0.1279 0.9816 0.1416
vn -0.0419 0.9982 -0.0434
vn -0.0039 0.9975 -0.0708
vn 0.0017 0.9980 -0.0624
vn 0.0127 0.9988 -0.0464
vn 0.0134 0.9988 -0.0462
vn -0.0116 0.9988 -0.0469
vn -0.0120 0.9988 -0.0468
vn -0.0323 0.9989 -0.0344
vn -0.0332 0.9989 -0.0335
vn -0.0431 0.9990 -0.0133
vn -0.0433 0.9990 -0.0116
vn -0.0415 0.9991 0.0095
vn -0.0410 0.9991 0.0110
vn -0.0296 0.9992 0.0278
vn -0.0287 0.9992 0.0285
vn -0.0723 0.9972 0.0175
vn -0.0561 0.9983 0.0179
vn 0.0538 0.9774 -0.2046
vn 0.1356 0.9676 -0.2130
vn -0.2325 0.9496 0.2102
vn -0.3082 0.9487 -0.0702
vn -0.0357 0.9711 -0.2360
vn -0.1301 0.9643 -0.2306
vn 0.0477 0.9657 0.2552
vn -0.0000 1.0000 -0.0000
vn 0.1722 0.9833 -0.0589
vn 0.0024 1.0000 -0.0035
vn -0.0002 1.0000 -0.0009
vn -0.0012 1.0000 0.0005
vn -0.1416 0.9814 -0.1295
vn -0.0347 0.9989 -0.0309
vn -0.0305 0.9986 -0.0442
vn 0.2831 0.9435 0.1720
vn -0.2143 0.9768 0.0070
vn -0.0216 0.9983 0.0544
vn -0.0628 0.9980 0.0020
vn 0.0268 0.9963 0.0819
vn 0.0215 0.9951 0.0968
vn 0.0695 0.9947 0.0754
vn -0.0422 0.9973 0.0608
vn 0.0012 0.9794 0.2019
vn 0.0005 0.9999 -0.0110
vn 0.0003 1.0000 -0.0046
vn -0.0716 0.9974 -0.0087
vn 0.0317 0.9995 -0.0066
vn 0.0489 0.9988 -0.0022
vn 0.0552 0.9983 0.0196
vn -0.2139 0.9694 -0.1207
vn 0.0112 -0.9999 0.0034
vn 0.0111 -0.9999 0.0039
vn 0.0118 -0.9999 0.0033
vn 0.0104 -0.9999 0.0028
vn -0.0188 -0.9978 0.0642
vn 0.0291 -0.9798 -0.1980
vn -0.1401 -0.9845 -0.1058
vn 0.2401 -0.9451 -0.2215
usemtl Terrain.001
s 1
f 50/1/1 60/2/2 3/3/3 4/4/4
f 55/5/5 57/6/6 8/7/7 9/8/8
f 54/9/9 56/10/10 12/11/11 13/12/12
f 57/6/6 59/13/13 15/14/14 8/7/7
f 59/13/13 52/15/15 17/16/16 15/14/14
f 58/17/17 54/9/18 13/12/19 19/18/20
f 52/15/15 58/17/17 19/18/20 17/16/16
f 60/2/2 51/19/21 21/20/22 3/3/3
f 51/19/21 55/5/5 9/8/8 21/20/22
f 67/21/23 72/22/24 22/23/25 23/24/26
f 67/21/23 23/24/26 24/25/27 70/26/28
f 61/27/29 50/1/1 4/4/4 26/28/30
f 53/29/31 61/27/32 26/28/33 28/30/34
f 63/31/35 70/26/28 24/25/27 29/32/36
f 65/33/37 63/31/35 29/32/36 30/34/38
f 62/35/39 65/33/37 30/34/38 31/36/40
f 72/22/24 69/37/41 32/38/42 22/23/25
f 71/39/43 69/37/41 6/40/44 20/41/45
f 68/42/46 71/39/43 20/41/45 2/43/47
f 73/44/48 68/42/46 2/43/47 1/45/49
f 64/46/50 73/44/48 1/45/49 25/47/51
f 66/48/52 64/46/53 25/47/54 27/49/55
f 62/35/39 66/48/56 27/49/57 11/50/58
f 38/51/59 39/52/60 31/36/61 30/34/62
f 40/53/63 38/51/64 30/34/65 29/32/66
f 41/54/67 40/53/63 29/32/66 24/25/68
f 42/55/69 41/54/67 24/25/68 23/24/70
f 43/56/71 42/55/69 23/24/70 22/23/72
f 44/57/73 43/56/71 22/23/72 32/38/74
f 45/58/75 44/57/73 32/38/74 33/59/76
f 46/60/77 45/58/75 33/59/76 34/61/78
f 47/62/79 46/60/77 34/61/78 35/63/80
f 48/64/81 47/62/79 35/63/80 36/65/82
f 49/66/83 48/64/81 36/65/82 37/67/84
f 39/52/60 49/66/85 37/67/86 31/36/61
f 56/10/10 53/29/87 28/30/88 12/11/11
f 49/66/89 39/52/90 38/51/91 40/53/92 41/54/93 42/55/90 43/56/90 44/57/90 45/58/90 46/60/90 47/62/90 48/64/94
f 11/50/95 27/49/96 53/29/87 56/10/10
f 27/49/97 25/47/98 61/27/32 53/29/31
f 25/47/99 1/45/49 50/1/1 61/27/29
f 20/41/45 6/40/44 55/5/5 51/19/21
f 2/43/47 20/41/45 51/19/21 60/2/2
f 16/68/100 18/69/101 58/17/17 52/15/15
f 18/69/101 10/70/102 54/9/18 58/17/17
f 14/71/103 16/68/100 52/15/15 59/13/13
f 7/72/104 14/71/103 59/13/13 57/6/6
f 10/70/105 11/50/95 56/10/10 54/9/9
f 6/40/44 7/72/104 57/6/6 55/5/5
f 1/45/49 2/43/47 60/2/2 50/1/1
f 31/36/40 37/67/106 66/48/56 62/35/39
f 37/67/107 36/65/108 64/46/53 66/48/52
f 36/65/109 35/63/110 73/44/48 64/46/50
f 35/63/110 34/61/111 68/42/46 73/44/48
f 34/61/111 33/59/112 71/39/43 68/42/46
f 33/59/112 32/38/42 69/37/41 71/39/43
f 7/72/104 6/40/44 69/37/41 72/22/24
f 11/50/58 10/70/113 65/33/37 62/35/39
f 10/70/113 18/69/101 63/31/35 65/33/37
f 18/69/101 16/68/100 70/26/28 63/31/35
f 14/71/103 67/21/23 70/26/28 16/68/100
f 14/71/103 7/72/104 72/22/24 67/21/23
f 4/73/114 3/74/114 21/75/115 9/76/114 8/77/116 15/78/114 17/79/117 19/80/118 13/81/119 12/82/114 28/83/120 26/84/121
