# Blender v2.77 (sub 0) OBJ File: 'CastleBackup.blend'
# www.blender.org
mtllib Castle_Castle.mtl
o Box.001
v 1.500000 4.000000 0.000002
v 1.500000 0.000000 0.000000
v 1.500000 0.000002 -4.000000
v 1.500000 4.000000 -3.999998
v -1.500000 4.000000 0.000002
v -1.500000 0.000000 0.000000
v 0.500000 4.933334 0.000002
v 0.500000 3.999991 0.000002
v -0.500000 4.000009 0.000002
v -0.500000 4.933334 0.000002
v -0.500000 4.933334 -3.999998
v 0.000000 5.733335 -3.999998
v 0.500000 4.933334 -3.999998
v 0.500000 0.000002 -4.000000
v -0.500000 0.000002 -4.000000
v -1.500000 0.000002 -4.000000
v -1.500000 4.000000 -3.999998
v 0.000000 5.733334 0.000002
vt 0.2982 0.4200
vt 0.2982 -0.0287
vt 0.7694 -0.0287
vt 0.7694 0.4200
vt -0.0553 1.0632
vt -0.0553 0.6145
vt 0.2982 0.6145
vt 0.2982 1.0632
vt 0.7694 0.0082
vt 0.9305 0.0024
vt 0.8585 0.0816
vt 0.9476 0.1550
vt 1.0195 0.0758
vt 1.0367 0.2284
vt 0.0625 0.0610
vt 0.1214 -0.0287
vt 0.1803 0.0610
vt 0.1803 0.6145
vt 0.0625 0.6145
vt -0.0553 0.6145
vt -0.0553 0.1657
vt 0.2982 0.1657
vt 0.2982 0.6145
vt 1.0367 -0.0287
vt 0.2982 0.4200
vt 0.7694 0.4200
vt 0.7694 0.8688
vt 0.2982 0.8688
vn 1.0000 -0.0000 0.0000
vn 0.0000 -0.0000 1.0000
vn -0.0000 0.0000 -1.0000
vn -1.0000 0.0000 0.0000
usemtl Render_pebbly.001
s 1
f 1/1/1 2/2/1 3/3/1 4/4/1
f 5/5/2 6/6/2 2/7/2 1/8/2
f 1/9/2 7/10/2 8/11/2
f 9/12/2 10/13/2 5/14/2
f 11/15/3 12/16/3 13/17/3 14/18/3 15/19/3
f 15/19/3 16/20/3 17/21/3 11/15/3
f 13/17/3 4/22/3 3/23/3 14/18/3
f 8/11/2 7/10/2 18/24/2 10/13/2 9/12/2
f 5/25/4 17/26/4 16/27/4 6/28/4
o Block_low
v -4.499997 -0.000006 0.500000
v -3.559850 -0.000014 0.500000
v -3.559850 -0.000014 1.500000
v -4.499997 -0.000006 1.499999
v -4.499997 -0.000006 -1.500000
v -3.559850 -0.000014 -1.500000
v -3.559850 -0.000014 -0.500000
v -4.499997 -0.000006 -0.500000
v -2.559850 -0.000014 -1.500000
v -2.559850 -0.000014 -0.500000
v -1.559851 -0.000014 -0.500000
v -0.499997 -0.000006 -0.499999
v -0.499997 -0.000006 0.500000
v -1.559851 -0.000014 0.500000
v -2.559850 -0.000014 0.500000
v -0.499997 1.999994 -0.499999
v -0.499984 3.833326 -0.499997
v -0.499965 4.633322 0.000003
v -0.499984 3.833326 0.500002
v -0.499997 1.999994 0.500000
v -0.499998 1.999994 -1.499999
v -0.499998 2.999994 -1.499999
v -4.499997 0.999994 -0.500000
v -4.499997 0.999994 -1.500000
v -4.499997 1.999994 -0.500000
v -4.499997 1.999994 -1.500000
v -4.499983 3.833326 -0.499998
v -4.499997 2.999994 -1.500000
v -1.559851 -0.000014 1.500000
v -2.559850 -0.000014 1.500000
v -0.499998 -0.000006 -1.499999
v -4.499997 0.999994 1.499999
v -4.499997 0.999994 0.500000
v -4.499997 1.999994 1.499999
v -4.499997 1.999994 0.500000
v -4.499997 2.999994 1.500000
v -4.499983 3.833326 0.500002
v -3.559850 0.999986 1.500000
v -3.559850 1.999986 1.500000
v -3.559850 2.999986 1.500000
v -2.559850 0.999986 1.500000
v -2.559850 1.999986 1.500000
v -2.559850 2.999986 1.500000
v -1.559851 0.999986 1.500000
v -1.559851 1.999986 1.500000
v -1.559851 2.999986 1.500000
v -1.559851 -0.000014 -1.499999
v -0.499997 0.999994 0.500000
v -1.559851 0.999986 -1.499999
v -0.499998 0.999994 -1.499999
v -1.559851 1.999986 -1.499999
v -1.559851 2.999986 -1.499999
v -2.559850 0.999986 -1.500000
v -2.559850 1.999986 -1.500000
v -2.559850 2.999986 -1.500000
v -3.559850 0.999986 -1.500000
v -3.559850 1.999986 -1.500000
v -3.559850 2.999986 -1.500000
v -0.499997 -0.000006 1.500000
v -0.499852 1.999986 1.500000
v -0.499852 2.999986 1.500000
v -0.499852 0.999986 1.500000
vt 0.4963 0.7778
vt 0.3796 0.7778
vt 0.3796 0.6667
vt 0.4963 0.6667
vt 0.4963 1.0000
vt 0.3796 1.0000
vt 0.3796 0.8889
vt 0.4963 0.8889
vt 0.2556 1.0000
vt 0.2556 0.8889
vt 0.1315 0.8889
vt 0.0000 0.8889
vt 0.0000 0.7778
vt 0.1315 0.7778
vt 0.2556 0.7778
vt 0.7444 0.6656
vt 0.7444 0.8693
vt 0.6824 0.9582
vt 0.6203 0.8693
vt 0.6203 0.6656
vt 0.8685 0.6656
vt 0.8685 0.7767
vt 0.7444 0.6667
vt 0.7444 0.5556
vt 0.8685 0.5556
vt 0.8685 0.6667
vt 0.7444 0.4444
vt 0.8685 0.4444
vt 0.1221 -0.0010
vt 0.1221 0.2027
vt -0.0020 0.1101
vt -0.0020 -0.0010
vt 0.1315 0.6667
vt 0.2556 0.6667
vt 0.7444 0.4444
vt 0.7444 0.2222
vt 0.8685 0.2222
vt 0.8685 0.4444
vt 0.4963 0.5556
vt 0.6204 0.5556
vt 0.6204 0.6667
vt 0.4963 0.4444
vt 0.6204 0.4444
vt 0.3703 -0.0010
vt 0.3703 0.1101
vt 0.2462 0.2027
vt 0.2462 -0.0010
vt 0.3797 0.6667
vt 0.3797 0.5556
vt 0.3797 0.4444
vt 0.7519 0.2222
vt 0.7519 0.1111
vt 0.8685 0.1111
vt 0.8685 0.2222
vt 0.2556 0.5556
vt 0.2556 0.4444
vt 0.6278 0.2222
vt 0.6278 0.1111
vt 0.1315 0.5556
vt 0.1315 0.4444
vt 0.5037 0.2222
vt 0.5037 0.1111
vt 0.1315 1.0000
vt 0.0000 1.0000
vt 0.6203 0.4444
vt 0.6203 0.3333
vt 0.6203 0.2222
vt 0.3648 0.4444
vt 0.3648 0.3333
vt 0.4963 0.3333
vt 0.4963 0.4444
vt 0.3648 0.2222
vt 0.4963 0.2222
vt 0.5037 0.0000
vt 0.5037 0.1111
vt 0.3722 0.1111
vt 0.3722 0.0000
vt 0.2407 0.4444
vt 0.2407 0.3333
vt 0.2407 0.2222
vt 0.6278 0.0000
vt 0.6278 0.1111
vt 0.1166 0.4444
vt 0.1166 0.3333
vt 0.1166 0.2222
vt 0.7518 0.0000
vt 0.7518 0.1111
vt 0.0000 0.4444
vt 0.0000 0.3333
vt 0.0000 0.2222
vt 0.8685 0.0000
vt 0.8685 0.1111
vt 0.0000 0.6667
vt 0.3722 0.2222
vt 0.3722 0.1111
vt 0.0000 0.5556
vt 0.0000 0.4444
vt 1.0000 1.0000
vt 1.0000 0.8889
vt 0.8685 0.8889
vt 0.8685 1.0000
vt 0.4963 0.4444
vt 0.4963 0.3333
vt 0.4963 0.7767
vt 0.4963 0.6656
vt 0.5078 0.2215
vt 0.5078 0.3339
vt 0.6189 0.3339
vt 0.6189 0.2215
vn -0.7071 -0.7071 -0.0000
vn -0.0000 -1.0000 -0.0000
vn 0.7071 -0.7071 -0.0000
vn 1.0000 -0.0000 -0.0000
vn 1.0000 -0.0000 -0.0001
vn -0.8944 -0.4472 -0.0000
vn -1.0000 -0.0000 0.0000
vn -0.0000 -0.0000 1.0000
vn 0.0000 -0.4472 0.8944
vn 0.0000 0.0000 -1.0000
vn 0.5773 -0.5774 0.5773
vn 0.7072 -0.0000 0.7071
vn 0.8218 -0.0000 0.5697
usemtl Render_pebbly_pebbles.jpg
s 1
f 19/29/5 20/30/6 21/31/6 22/32/6
f 23/33/6 24/34/6 25/35/6 26/36/6
f 24/34/6 27/37/6 28/38/6 25/35/6
f 29/39/6 30/40/6 31/41/7 32/42/6
f 28/38/6 29/39/6 32/42/6 33/43/6
f 34/44/8 35/45/8 36/46/8 37/47/8 38/48/9
f 25/35/6 28/38/6 33/43/6 20/30/6
f 26/36/10 25/35/6 20/30/6 19/29/5
f 39/49/8 40/50/8 35/45/8 34/44/8
f 26/51/10 41/52/11 42/53/11 23/54/11
f 41/52/11 43/55/11 44/56/11 42/53/11
f 43/57/11 45/58/11 46/59/11 44/60/11
f 33/43/6 32/42/6 47/61/6 48/62/6
f 20/30/6 33/43/6 48/62/6 21/31/6
f 34/63/8 30/64/8 49/65/8 39/66/8
f 22/32/11 50/67/11 51/68/11 19/69/5
f 50/67/11 52/70/11 53/71/11 51/68/11
f 52/72/11 54/73/11 55/74/11 53/75/11
f 21/76/12 56/77/12 50/67/12 22/32/12
f 56/77/12 57/78/12 52/70/12 50/67/12
f 57/79/12 58/80/12 54/81/12 52/82/12
f 48/62/12 59/83/12 56/77/12 21/76/12
f 59/83/12 60/84/12 57/78/12 56/77/12
f 60/85/12 61/86/12 58/80/12 57/79/12
f 47/61/13 62/87/12 59/83/12 48/62/12
f 62/87/12 63/88/12 60/84/12 59/83/12
f 63/89/12 64/90/12 61/86/12 60/85/12
f 27/37/6 65/91/6 29/39/6 28/38/6
f 65/91/6 49/92/6 30/40/6 29/39/6
f 38/93/9 66/94/9 31/95/7 30/64/8 34/63/8
f 65/96/14 67/97/14 68/98/14 49/99/14
f 67/97/14 69/100/14 39/101/14 68/98/14
f 69/102/14 70/103/14 40/104/14 39/105/14
f 27/106/14 71/107/14 67/97/14 65/96/14
f 71/107/14 72/108/14 69/100/14 67/97/14
f 72/109/14 73/110/14 70/103/14 69/102/14
f 24/111/14 74/112/14 71/107/14 27/106/14
f 74/112/14 75/113/14 72/108/14 71/107/14
f 75/114/14 76/115/14 73/110/14 72/109/14
f 23/116/14 42/117/14 74/112/14 24/111/14
f 42/117/14 44/118/14 75/113/14 74/112/14
f 44/119/14 46/120/14 76/115/14 75/114/14
f 32/42/6 31/41/7 77/121/15 47/61/13
f 64/90/12 63/89/12 78/122/16 79/123/17
f 63/88/12 62/87/12 80/124/16 78/125/16
f 62/126/12 47/127/13 77/128/15 80/129/16
f 78/130/16 80/131/16 66/94/9 38/93/9
f 79/132/17 78/133/16 38/48/9 37/47/8
f 31/134/7 66/135/9 80/136/16 77/137/15
f 41/52/11 26/51/10 19/69/5 51/68/11
f 53/71/11 43/55/11 41/52/11 51/68/11
f 45/58/11 43/57/11 53/75/11 55/74/11
